<svg xmlns="http://www.w3.org/2000/svg" viewBox="0 0 64 64" role="img" aria-label="NS favicon">
  <defs>
    <linearGradient id="ns-grad" x1="0%" y1="0%" x2="100%" y2="100%">
      <stop offset="0%" stop-color="#0f172a" />
      <stop offset="100%" stop-color="#1d4ed8" />
    </linearGradient>
  </defs>
  <rect x="4" y="4" width="56" height="56" rx="14" fill="url(#ns-grad)" />
  <path
    d="M18 45V19h6l10 15V19h6v26h-6L24 30v15z"
    fill="#f8fafc"
  />
  <path
    d="M43 24.5c0-3.5 2.8-6.5 7.5-6.5 2.4 0 4.5.8 5.9 2.1l-2.7 3.8c-.8-.8-2.1-1.3-3.3-1.3-1.4 0-2.1.7-2.1 1.5 0 2.7 8.2 1.1 8.2 7.6 0 3.9-3 6.8-7.9 6.8-3.4 0-5.8-1.1-7.3-2.6l2.9-3.9c1 .9 2.6 1.7 4.3 1.7 1.4 0 2.3-.6 2.3-1.7 0-2.8-7.8-1.2-7.8-7.5z"
    fill="#93c5fd"
  />
</svg>
